<svg xmlns="http://www.w3.org/2000/svg" width="36.28" height="25.486" viewBox="0 0 36.28 25.486">
  <path id="group_FILL1_wght400_GRAD0_opsz48" d="M1.9,34.436V30.578a4.78,4.78,0,0,1,.739-2.606,4.5,4.5,0,0,1,2.052-1.744,32.538,32.538,0,0,1,5.4-1.888,21.174,21.174,0,0,1,4.945-.575,20.916,20.916,0,0,1,4.925.575,32.816,32.816,0,0,1,5.376,1.888,4.619,4.619,0,0,1,2.073,1.744,4.685,4.685,0,0,1,.759,2.606v3.858Zm28.729,0V30.578a6.643,6.643,0,0,0-1.313-4.248,9.613,9.613,0,0,0-3.447-2.688,40.7,40.7,0,0,1,5.335.964,18.806,18.806,0,0,1,4.063,1.457A6.352,6.352,0,0,1,37.4,27.993a4.5,4.5,0,0,1,.78,2.586v3.858Zm-15.6-13.174a5.9,5.9,0,0,1-6.156-6.156A5.9,5.9,0,0,1,15.033,8.95a5.9,5.9,0,0,1,6.156,6.156,5.9,5.9,0,0,1-6.156,6.156Zm14.775-6.156a5.9,5.9,0,0,1-6.156,6.156,9.176,9.176,0,0,1-1.005-.062,4.341,4.341,0,0,1-1.006-.226,6.736,6.736,0,0,0,1.5-2.524,10.279,10.279,0,0,0,.513-3.345,9.553,9.553,0,0,0-.513-3.263,8.725,8.725,0,0,0-1.5-2.606,8.661,8.661,0,0,1,1.006-.205,6.916,6.916,0,0,1,1.005-.082,5.9,5.9,0,0,1,6.156,6.156Z" transform="translate(-1.9 -8.95)"/>
</svg>
