<svg xmlns="http://www.w3.org/2000/svg" width="36.278" height="25.485" viewBox="0 0 36.278 25.485">
  <path id="他人アイコン" d="M1.9,34.435V30.577a4.78,4.78,0,0,1,.739-2.606,4.5,4.5,0,0,1,2.052-1.744,32.536,32.536,0,0,1,5.4-1.888,21.173,21.173,0,0,1,4.945-.575,20.915,20.915,0,0,1,4.925.575,32.815,32.815,0,0,1,5.376,1.888,4.619,4.619,0,0,1,2.072,1.744,4.685,4.685,0,0,1,.759,2.606v3.858Zm28.727,0V30.577a6.642,6.642,0,0,0-1.313-4.247,9.612,9.612,0,0,0-3.447-2.688,40.7,40.7,0,0,1,5.335.964,18.8,18.8,0,0,1,4.063,1.457A6.352,6.352,0,0,1,37.4,27.992a4.5,4.5,0,0,1,.78,2.585v3.858ZM15.032,21.262a5.9,5.9,0,0,1-6.156-6.156A5.9,5.9,0,0,1,15.032,8.95a5.9,5.9,0,0,1,6.156,6.156,5.9,5.9,0,0,1-6.156,6.156Zm14.774-6.156a5.9,5.9,0,0,1-6.156,6.156,9.177,9.177,0,0,1-1.005-.062,4.341,4.341,0,0,1-1.005-.226,6.735,6.735,0,0,0,1.5-2.524,10.278,10.278,0,0,0,.513-3.345,9.553,9.553,0,0,0-.513-3.263,8.725,8.725,0,0,0-1.5-2.606,8.661,8.661,0,0,1,1.005-.205A6.916,6.916,0,0,1,23.65,8.95a5.9,5.9,0,0,1,6.156,6.156ZM4.362,31.973H25.7v-1.4a2.347,2.347,0,0,0-.39-1.272,2.145,2.145,0,0,0-.964-.862,27.71,27.71,0,0,0-4.966-1.765,19.845,19.845,0,0,0-4.35-.451,20.126,20.126,0,0,0-4.371.451,27.466,27.466,0,0,0-4.986,1.765,2.035,2.035,0,0,0-.944.862,2.441,2.441,0,0,0-.369,1.272ZM15.032,18.8a3.579,3.579,0,0,0,3.693-3.693,3.579,3.579,0,0,0-3.693-3.693,3.579,3.579,0,0,0-3.693,3.693A3.579,3.579,0,0,0,15.032,18.8ZM15.032,31.973ZM15.032,15.106Z" transform="translate(-1.9 -8.95)" fill="rgba(0,0,0,0.5)"/>
</svg>
